<svg xmlns="http://www.w3.org/2000/svg" viewBox="0 0 500 500"><g id="freepik--Floor--inject-3"><ellipse id="freepik--floor--inject-3" cx="251.3" cy="344.19" rx="226.16" ry="125.1" style="fill:#f0f0f0"></ellipse></g><g id="freepik--Shadows--inject-3"><path id="freepik--Shadow--inject-3" d="M136,434,41.09,379.13a1.19,1.19,0,0,1,0-2.25L91,348.05a4.32,4.32,0,0,1,3.9,0l95,54.85a1.19,1.19,0,0,1,0,2.25l-50,28.8A4.32,4.32,0,0,1,136,434Z" style="fill:#e0e0e0"></path><ellipse id="freepik--shadow--inject-3" cx="207.71" cy="436.79" rx="27.73" ry="16.01" style="fill:#e0e0e0"></ellipse><ellipse id="freepik--shadow--inject-3" cx="402.1" cy="317.8" rx="52.62" ry="30.38" style="fill:#e0e0e0"></ellipse><path id="freepik--shadow--inject-3" d="M407.05,362.92l-95.38-55,28.16-16.25c1.77-1,1.77-2.68,0-3.71L229,223.81a7.1,7.1,0,0,0-6.41,0L64.92,315c-1.77,1-1.77,2.69,0,3.71l110.7,64a7.1,7.1,0,0,0,6.41,0l23.12-13.28,95.39,55Z" style="fill:#e0e0e0"></path></g><g id="freepik--Plant--inject-3"><g id="freepik--Plants--inject-3"><path d="M70.73,272.79c1.15-7.88-2.16-25.05-8.84-36.48s-18.45-20.8-28-19c-8.94,1.66-9.65,13-.41,21.87s23.4,20.48,26.07,33.93l7.23,17.08Z" style="fill:#BA68C8"></path><g style="opacity:0.15"><path d="M70.73,272.79c1.15-7.88-2.16-25.05-8.84-36.48s-18.45-20.8-28-19c-8.94,1.66-9.65,13-.41,21.87s23.4,20.48,26.07,33.93l7.23,17.08Z"></path></g><path d="M69.73,283.67a.59.59,0,0,1-.45-.54c-1.34-27.69-19.91-52.75-32.23-59.49a.58.58,0,1,1,.56-1c12.56,6.87,31.48,32.35,32.83,60.45a.58.58,0,0,1-.55.61Z" style="fill:#fff"></path><path d="M68.65,309.23c-.61-4.61-5-12.72-12.83-20-8.7-8.1-20.51-13-22.58-18.59-2.47-6.74,3.66-11.87,13.42-9.18s25.28,18.82,25.08,39.67Z" style="fill:#BA68C8"></path><path d="M71.26,304.86a.57.57,0,0,1-.44-.45c-4.88-24.26-21.29-34.93-29.28-37.18a.58.58,0,1,1,.32-1.12C50.7,268.6,67,279.42,72,304.18a.59.59,0,0,1-.46.69A.65.65,0,0,1,71.26,304.86Z" style="fill:#fff"></path></g></g><g id="freepik--Clouds--inject-3"><g id="freepik--clouds--inject-3"><path d="M166.56,67.18l-6.11,3.52a7.31,7.31,0,0,0,.05-.8V68.12c0-3.15-2.21-4.42-4.94-2.85a9.65,9.65,0,0,0-2.95,2.83c-.44-4-3.55-5.44-7.33-3.26a16.37,16.37,0,0,0-7.39,12.81V80.3a7,7,0,0,0,.62,3.07l-5.07,2.93a6,6,0,0,0-2.74,4.75c0,1.75,1.22,2.45,2.74,1.58l33.12-19.12a6.05,6.05,0,0,0,2.74-4.75C169.3,67,168.08,66.3,166.56,67.18Z" style="fill:#ebebeb"></path><path d="M104.3,71.38l-3.37,1.29V65.25c0-5.89-4.7-7.3-9.8-4.36h0C86,63.83,81.9,71,81.9,76.88V78a5,5,0,0,0-4.29.66h0A14.68,14.68,0,0,0,71,90.13v.49l-4.71,2.72a9.68,9.68,0,0,0-4.37,7.58c0,2.79,2,3.92,4.37,2.52l38-22a9.68,9.68,0,0,0,4.37-7.58C108.67,71.11,106.71,70,104.3,71.38Z" style="fill:#ebebeb"></path></g></g><g id="freepik--Printer--inject-3"><g id="freepik--printer--inject-3"><g id="freepik--printer--inject-3"><path d="M184.11,374.88,326.63,292.6a13,13,0,0,0,5.87-10.17V232.38a13,13,0,0,0-5.87-10.17l-98.44-56.84a13,13,0,0,0-11.75,0L73.93,247.65a13,13,0,0,0-5.87,10.17v50.05a13,13,0,0,0,5.87,10.18l98.44,56.83A13,13,0,0,0,184.11,374.88Z" style="fill:#BA68C8"></path><path d="M178.24,371.49V321.44a13,13,0,0,0-5.87-10.17L73.93,254.43c-3.25-1.87-5.87-.35-5.87,3.39v50.05a13,13,0,0,0,5.87,10.18l98.44,56.83C175.61,376.75,178.24,375.24,178.24,371.49Z" style="fill:#263238"></path><path d="M329.78,225.1,175.53,314.16a10.87,10.87,0,0,0-3.16-2.89L73.94,254.44c-2.94-1.7-5.36-.64-5.8,2.35a13,13,0,0,1,5.8-9.13l142.5-82.3a13,13,0,0,1,11.75,0l98.43,56.86A10.58,10.58,0,0,1,329.78,225.1Z" style="fill:#BA68C8"></path><path d="M329.78,225.1,175.53,314.16a10.87,10.87,0,0,0-3.16-2.89L73.94,254.44c-2.94-1.7-5.36-.64-5.8,2.35a13,13,0,0,1,5.8-9.13l142.5-82.3a13,13,0,0,1,11.75,0l98.43,56.86A10.58,10.58,0,0,1,329.78,225.1Z" style="fill:#455a64"></path><path d="M332.49,232.38v50a12.87,12.87,0,0,1-5.87,10.17l-142.5,82.29a13.06,13.06,0,0,1-10.86.42c2.81,1.16,5-.42,5-3.82v-50a12.62,12.62,0,0,0-2.71-7.28L329.78,225.1A12.63,12.63,0,0,1,332.49,232.38Z" style="fill:#37474f"></path><path d="M302.07,249.2v13.24a10.42,10.42,0,0,1-4.69,8.15l-80,46.22c-2.59,1.51-4.7.29-4.7-2.7V300.87a11.66,11.66,0,0,0-2.22-6.86l89.45-51.65A11.72,11.72,0,0,1,302.07,249.2Z" style="fill:#BA68C8"></path><path d="M302.07,249.2v13.24a10.42,10.42,0,0,1-4.69,8.15l-80,46.22c-2.59,1.51-4.7.29-4.7-2.7V300.87a11.66,11.66,0,0,0-2.22-6.86l89.45-51.65A11.72,11.72,0,0,1,302.07,249.2Z" style="opacity:0.15"></path><path d="M299.87,242.36,210.42,294a11.53,11.53,0,0,0-3.65-3.32l-66.56-38.43c-2.59-1.49-2.59-3.93,0-5.42l80-46.24a10.44,10.44,0,0,1,9.4,0L296.21,239A11.59,11.59,0,0,1,299.87,242.36Z" style="fill:#BA68C8"></path><path d="M211.15,242.45c-6.46,3.73-6.46,9.78,0,13.51s16.94,3.73,23.4,0,6.47-9.77,0-13.51S217.61,238.72,211.15,242.45Z" style="fill:#fafafa"></path><path d="M199.8,344.74a8.93,8.93,0,0,1,4-7l109.41-63.17c2.23-1.28,4-.24,4,2.34V298L199.8,365.83V344.74" style="fill:#263238"></path><polygon points="203.63 350.89 203.63 344.53 313.82 280.92 313.82 287.28 203.63 350.89"></polygon><polygon points="101.11 244.68 211.3 181.06 216.69 184.19 106.52 247.8 101.11 244.68" style="fill:#263238"></polygon><polygon points="103.67 246.18 87.83 176.18 198.02 112.56 213.85 182.57 103.67 246.18" style="fill:#37474f"></polygon><polygon points="87.83 176.18 85.28 174.68 101.11 244.68 103.67 246.18 87.83 176.18" style="fill:#263238"></polygon><polygon points="85.28 174.68 87.83 176.18 198.02 112.56 195.47 111.06 85.28 174.68" style="fill:#455a64"></polygon><polygon points="106.86 244.34 87.73 159.68 188.64 101.42 207.77 186.08 106.86 244.34" style="fill:#e0e0e0"></polygon><polygon points="109.67 245.98 90.53 161.32 191.45 103.06 210.58 187.72 109.67 245.98" style="fill:#fafafa"></polygon><polygon points="90.53 161.32 87.73 159.68 107.51 247.23 109.67 245.98 90.53 161.32" style="fill:#e0e0e0"></polygon><polygon points="87.73 159.68 90.53 161.32 191.45 103.06 188.64 101.42 87.73 159.68" style="fill:#ebebeb"></polygon><path d="M193.31,296.21v-1.27a1.63,1.63,0,0,0-1-1.35l-2.65-1.53a5.19,5.19,0,0,0-4.7,0l-10,5.77a1.64,1.64,0,0,0-1,1.36h0v1.29h0a1.66,1.66,0,0,0,1,1.33l2.65,1.53a5.19,5.19,0,0,0,4.7,0l10-5.77a1.65,1.65,0,0,0,1-1.34h0Z" style="fill:#263238"></path><path d="M177.65,302.07,175,300.54c-1.29-.75-1.29-2,0-2.71l10-5.77a5.19,5.19,0,0,1,4.7,0l2.65,1.53c1.29.74,1.29,2,0,2.71l-10,5.77A5.25,5.25,0,0,1,177.65,302.07Z" style="fill:#37474f"></path><path d="M180.14,301a4.08,4.08,0,0,1-2-.48,1.67,1.67,0,0,1-.85-1,1.15,1.15,0,0,1,.14-.9.21.21,0,0,1,.29-.08.23.23,0,0,1,.08.3.7.7,0,0,0-.1.57,1.3,1.3,0,0,0,.66.73,3.92,3.92,0,0,0,3.56,0,.94.94,0,0,0,0-1.81,3.92,3.92,0,0,0-2.61-.34.24.24,0,0,1-.26-.17.23.23,0,0,1,.17-.26,4.38,4.38,0,0,1,2.92.4,1.36,1.36,0,0,1,0,2.55A4.08,4.08,0,0,1,180.14,301Z" style="fill:#fafafa"></path><path d="M180.23,299.51l-.1,0-2.47-1.43a.21.21,0,0,1-.07-.29.21.21,0,0,1,.29-.08l2.46,1.42a.21.21,0,0,1,.08.3A.21.21,0,0,1,180.23,299.51Z" style="fill:#fafafa"></path><path d="M164.51,299.26l22-12.72a.75.75,0,0,0,0-1.41l-12.74-7.35a2.68,2.68,0,0,0-2.42,0l-22,12.73a.74.74,0,0,0,0,1.4l12.73,7.35A2.68,2.68,0,0,0,164.51,299.26Z" style="fill:#263238"></path><path d="M173.72,279.6a2.65,2.65,0,0,0-2.42,0l-21.58,12.51,12.37,7.15a2.68,2.68,0,0,0,2.42,0l21.59-12.52Z" style="fill:#BA68C8"></path><g style="opacity:0.4"><path d="M156.94,292.7a3.94,3.94,0,0,1,3.84-.15c1.15.66,1.1,1.58-.13,2.29l-1.06.61,1.42.82-.94.54-5.13-3Zm2.24,2.52.86-.5c.84-.48.76-1-.23-1.61a2.57,2.57,0,0,0-2.67-.06l-.86.49Z"></path><path d="M159.8,291l2.13-1.22a3.51,3.51,0,0,1,3.33-.24.94.94,0,0,1,.2,1.67,4.08,4.08,0,0,1,1-.05l2.51.19-.57.76-2.41-.27a2.79,2.79,0,0,0-1.92.2l-.29.17,2.09,1.21-.95.54Zm1.36-.31,2.22,1.29,1.08-.63c.6-.34.53-.84-.16-1.24a2,2,0,0,0-2.11,0Z"></path><path d="M165.69,287.64l5.13,3-.94.54-5.13-3Z"></path><path d="M167.51,286.59l6.25.6.22,0h0l-1.54-.89c-.69-.4-2-1-2.36-1.2l.67-.39,5.13,3-.65.38-6.37-.61-.34-.05h0l1.7,1,2.22,1.28-.62.36c-.39-.23-1.43-.93-2.12-1.32L166.77,287Z"></path><path d="M175.82,281.8l.52.3c-.34.19-1.32.62-1.8.9l4.72,2.73-.95.55-4.72-2.73c-.49.28-1.23.84-1.57,1l-.52-.3Z"></path></g></g><g id="freepik--Invoice--inject-3"><path d="M205.79,348.23a77.72,77.72,0,0,1,27.76,11.23,71.52,71.52,0,0,1,23.17,24.47h0a72.36,72.36,0,0,0,26.52,26.51l17.3,10V416l-17.3-10c-11-6.36-19.09-16.18-25.45-27.19h0c-5.7-9.86-14.66-17.64-24.24-23.79a78.41,78.41,0,0,0-24.81-10.63l-2.91,1.68Z" style="fill:#e0e0e0"></path><g style="opacity:0.05"><path d="M205.79,348.23a77.72,77.72,0,0,1,27.76,11.23,71.52,71.52,0,0,1,23.17,24.47h0a72.36,72.36,0,0,0,26.52,26.51l17.3,10V416l-17.3-10c-11-6.36-19.09-16.18-25.45-27.19h0c-5.7-9.86-14.66-17.64-24.24-23.79a78.41,78.41,0,0,0-24.81-10.63l-2.91,1.68Z"></path></g><polygon points="401.2 357.84 300.54 416.03 300.54 420.43 401.2 362.21 401.2 357.84" style="fill:#ebebeb"></polygon><path d="M300.54,416l-17.3-10c-11-6.36-19.09-16.18-25.45-27.19h0c-5.7-9.86-14.66-17.64-24.24-23.79a78.41,78.41,0,0,0-24.81-10.63l100.63-58.21a78.73,78.73,0,0,1,24.84,10.64c9.59,6.15,18.27,14.31,24,24.18h0c6.36,11,14.72,20.44,25.73,26.8l17.3,10Z" style="fill:#fafafa"></path><path d="M227.75,344.21a.93.93,0,0,1-.47-1.74l59-34.15a.93.93,0,0,1,.93,1.61l-59,34.15A.9.9,0,0,1,227.75,344.21Z" style="fill:#e0e0e0"></path><path d="M237.31,348.82a.94.94,0,0,1-.47-1.75l59-34.15a.93.93,0,0,1,.93,1.62l-59,34.15A.9.9,0,0,1,237.31,348.82Z" style="fill:#e0e0e0"></path><path d="M246,354.37a.91.91,0,0,1-.81-.46.93.93,0,0,1,.34-1.28l59-34.15a.94.94,0,0,1,.94,1.62l-59,34.15A1,1,0,0,1,246,354.37Z" style="fill:#e0e0e0"></path><path d="M254.42,361.21a.93.93,0,0,1-.46-1.74l59-34.15a.93.93,0,0,1,1.28.34,1,1,0,0,1-.35,1.28l-59,34.15A1,1,0,0,1,254.42,361.21Z" style="fill:#e0e0e0"></path><path d="M261.75,369.15a.91.91,0,0,1-.81-.46.93.93,0,0,1,.34-1.28l59-34.15a.94.94,0,0,1,.94,1.62l-59,34.15A1,1,0,0,1,261.75,369.15Z" style="fill:#e0e0e0"></path><path d="M267.63,378.23a.93.93,0,0,1-.47-1.74l59-34.15a.93.93,0,0,1,.93,1.61l-59,34.16A1,1,0,0,1,267.63,378.23Z" style="fill:#e0e0e0"></path><path d="M273.88,387.11a.93.93,0,0,1-.47-1.74l59-34.15a.93.93,0,0,1,.93,1.61l-59,34.15A.9.9,0,0,1,273.88,387.11Z" style="fill:#e0e0e0"></path><path d="M297.16,304a.91.91,0,0,1-.81-.46.93.93,0,0,1,.34-1.28l15.1-8.75a.93.93,0,0,1,.93,1.62l-15.1,8.75A1,1,0,0,1,297.16,304Z" style="fill:#e0e0e0"></path><path d="M306.71,308.64a.93.93,0,0,1-.47-1.74l15.11-8.75a.93.93,0,1,1,.93,1.61l-15.1,8.76A1,1,0,0,1,306.71,308.64Z" style="fill:#e0e0e0"></path><path d="M315.39,314.2a.94.94,0,0,1-.81-.47.92.92,0,0,1,.34-1.27l15.1-8.75a.93.93,0,1,1,.94,1.61l-15.11,8.75A.84.84,0,0,1,315.39,314.2Z" style="fill:#e0e0e0"></path><path d="M323.83,321a.94.94,0,0,1-.81-.47.92.92,0,0,1,.34-1.27l15.1-8.75a.93.93,0,1,1,.94,1.61l-15.11,8.75A.84.84,0,0,1,323.83,321Z" style="fill:#e0e0e0"></path><path d="M331.15,329a.94.94,0,0,1-.81-.47.92.92,0,0,1,.34-1.27l15.1-8.75a.93.93,0,1,1,.94,1.61l-15.11,8.75A.84.84,0,0,1,331.15,329Z" style="fill:#e0e0e0"></path><path d="M337,338.06a.93.93,0,0,1-.46-1.74l15.1-8.76a.93.93,0,0,1,.93,1.62l-15.1,8.75A.9.9,0,0,1,337,338.06Z" style="fill:#e0e0e0"></path><path d="M343.28,346.94a1,1,0,0,1-.81-.47.94.94,0,0,1,.34-1.27l15.11-8.76a.93.93,0,0,1,.93,1.62l-15.1,8.75A.9.9,0,0,1,343.28,346.94Z" style="fill:#e0e0e0"></path><path d="M359.29,350.88a13.24,13.24,0,0,1,4.76-.93,9.66,9.66,0,0,1,1.95.18,6.2,6.2,0,0,1,1.43.45c.19.1.27.21.26.34a.46.46,0,0,1-.26.34l-1.51.87a1.52,1.52,0,0,1-.69.23,3.35,3.35,0,0,1-.7,0,6.53,6.53,0,0,0-1.92,0,6.61,6.61,0,0,0-2.35.9,5.15,5.15,0,0,0-.95.68,2.35,2.35,0,0,0-.54.71.9.9,0,0,0,0,.66,1.09,1.09,0,0,0,.52.55,2.49,2.49,0,0,0,1,.33,4.64,4.64,0,0,0,1.31-.14,13.94,13.94,0,0,0,1.77-.54c.68-.24,1.51-.54,2.47-.9a24,24,0,0,1,2.84-.88,11.08,11.08,0,0,1,2.37-.32,7,7,0,0,1,2,.23,7.39,7.39,0,0,1,1.82.76,3.68,3.68,0,0,1,1.25,1.09,2.08,2.08,0,0,1,.38,1.3,2.81,2.81,0,0,1-.53,1.43,6.29,6.29,0,0,1-1.46,1.46l1.46.85a.35.35,0,0,1,0,.67l-1.74,1a1.16,1.16,0,0,1-.58.14,1.13,1.13,0,0,1-.58-.14l-1.47-.85a14.11,14.11,0,0,1-2.33.76,14.26,14.26,0,0,1-2.35.36,10.82,10.82,0,0,1-2.22-.1,6.52,6.52,0,0,1-1.93-.62c-.18-.09-.27-.2-.26-.33a.46.46,0,0,1,.26-.34l1.51-.87A1.87,1.87,0,0,1,365,360a2.52,2.52,0,0,1,.71,0,8.48,8.48,0,0,0,.93.11,4.4,4.4,0,0,0,1.07-.05,8.14,8.14,0,0,0,1.27-.32,9.5,9.5,0,0,0,1.51-.71,9.6,9.6,0,0,0,1.15-.78,2.9,2.9,0,0,0,.73-.79,1.21,1.21,0,0,0,.18-.75,1,1,0,0,0-.55-.64,2.16,2.16,0,0,0-1.08-.27,5.2,5.2,0,0,0-1.43.23c-.55.15-1.2.36-1.93.64s-1.59.58-2.58.92a22.42,22.42,0,0,1-2.5.73,11.1,11.1,0,0,1-2.21.27,7.44,7.44,0,0,1-3.93-1.07,3.49,3.49,0,0,1-1.23-1.08,2.31,2.31,0,0,1-.38-1.25,2.53,2.53,0,0,1,.42-1.34,5.51,5.51,0,0,1,1.19-1.32l-1.46-.85a.35.35,0,0,1,0-.67l1.74-1a1.16,1.16,0,0,1,.58-.13,1.13,1.13,0,0,1,.58.13Z" style="fill:#BA68C8"></path><polygon points="314.5 381.89 325.13 388.02 326.65 387.14 316.02 381.01 314.5 381.89" style="fill:#455a64"></polygon><polygon points="326.3 375.08 336.93 381.21 338.45 380.33 327.82 374.19 326.3 375.08" style="fill:#455a64"></polygon><polygon points="336.2 369.36 346.83 375.5 347.82 374.93 337.19 368.79 336.2 369.36" style="fill:#455a64"></polygon><polygon points="320.56 378.39 331.19 384.53 331.95 384.09 321.32 377.95 320.56 378.39" style="fill:#455a64"></polygon><polygon points="328.88 373.58 339.51 379.72 340.27 379.28 329.64 373.14 328.88 373.58" style="fill:#455a64"></polygon><polygon points="334.25 370.49 344.88 376.62 345.64 376.18 335.01 370.04 334.25 370.49" style="fill:#455a64"></polygon><polygon points="317.21 380.32 327.84 386.46 330.55 384.89 319.92 378.76 317.21 380.32" style="fill:#455a64"></polygon><polygon points="322.63 377.19 333.26 383.33 335.98 381.76 325.35 375.62 322.63 377.19" style="fill:#455a64"></polygon><polygon points="330.77 372.49 341.4 378.63 343.26 377.56 332.63 371.42 330.77 372.49" style="fill:#455a64"></polygon><polygon points="289.32 396.42 299.95 402.56 301.48 401.68 290.85 395.54 289.32 396.42" style="fill:#455a64"></polygon><polygon points="301.12 389.61 311.75 395.75 313.28 394.87 302.65 388.73 301.12 389.61" style="fill:#455a64"></polygon><polygon points="311.02 383.89 321.65 390.03 323.18 389.15 312.55 383.01 311.02 383.89" style="fill:#455a64"></polygon><polygon points="295.38 392.93 306.01 399.06 306.77 398.62 296.14 392.49 295.38 392.93" style="fill:#455a64"></polygon><polygon points="303.64 388.15 314.27 394.29 315.04 393.85 304.41 387.71 303.64 388.15" style="fill:#455a64"></polygon><polygon points="309.07 385.02 319.7 391.16 320.47 390.72 309.84 384.58 309.07 385.02" style="fill:#455a64"></polygon><polygon points="292.03 394.86 302.66 401 304.67 399.84 294.04 393.7 292.03 394.86" style="fill:#455a64"></polygon><polygon points="297.46 391.73 308.09 397.86 310.3 396.59 299.67 390.45 297.46 391.73" style="fill:#455a64"></polygon><polygon points="305.69 386.97 316.32 393.11 318.41 391.91 307.78 385.78 305.69 386.97" style="fill:#455a64"></polygon><polygon points="338.71 367.91 349.34 374.04 350.87 373.16 340.24 367.02 338.71 367.91" style="fill:#455a64"></polygon><polygon points="341.5 366.3 352.13 372.44 352.89 372 342.26 365.86 341.5 366.3" style="fill:#455a64"></polygon><polygon points="346.67 363.32 357.3 369.45 358.06 369.01 347.43 362.88 346.67 363.32" style="fill:#455a64"></polygon><polygon points="343.72 365.02 354.35 371.15 356.53 369.89 345.9 363.76 343.72 365.02" style="fill:#455a64"></polygon></g></g></g><g id="freepik--Coins--inject-3"><g id="freepik--coins--inject-3"><path d="M231.93,429.2a16.53,16.53,0,0,0-6.12-5.66c-10-5.77-26.2-5.77-36.19,0a16.53,16.53,0,0,0-6.12,5.66h-1.38v5.23h0c.18,3.63,2.67,7.24,7.48,10,10,5.77,26.2,5.77,36.19,0,4.81-2.77,7.31-6.38,7.5-10h0V429.2Z" style="fill:#BA68C8"></path><g style="opacity:0.25"><path d="M231.93,429.2a16.53,16.53,0,0,0-6.12-5.66c-10-5.77-26.2-5.77-36.19,0a16.53,16.53,0,0,0-6.12,5.66h-1.38v5.23h0c.18,3.63,2.67,7.24,7.48,10,10,5.77,26.2,5.77,36.19,0,4.81-2.77,7.31-6.38,7.5-10h0V429.2Z"></path></g><path d="M207.72,419.22c-6.56,0-13.11,1.44-18.1,4.32a16.53,16.53,0,0,0-6.12,5.66h-1.38v5.23h0c.18,3.63,2.67,7.24,7.48,10,5,2.89,11.54,4.33,18.1,4.33Z" style="opacity:0.1"></path><path d="M193.73,421.62a27.66,27.66,0,0,0-4.11,1.92,16.53,16.53,0,0,0-6.12,5.66h-1.38v5.23h0c.18,3.63,2.67,7.24,7.48,10a27.7,27.7,0,0,0,4.11,1.93Z" style="opacity:0.1"></path><path d="M221.69,421.62a27.78,27.78,0,0,1,4.12,1.92,16.53,16.53,0,0,1,6.12,5.66h1.38v5.23h0c-.19,3.63-2.69,7.24-7.5,10a27.82,27.82,0,0,1-4.12,1.93Z" style="fill:#BA68C8"></path><path d="M225.81,418.75c-10-5.77-26.2-5.77-36.19,0s-10,15.13,0,20.9,26.2,5.77,36.19,0S235.81,424.52,225.81,418.75Z" style="fill:#BA68C8"></path><path d="M225.81,418.75c-10-5.77-26.2-5.77-36.19,0s-10,15.13,0,20.9,26.2,5.77,36.19,0S235.81,424.52,225.81,418.75Z" style="opacity:0.2"></path><path d="M219.5,422.58a28.82,28.82,0,0,0-23.57,0c-3.35,1.71-5.2,4.07-5.2,6.62s1.85,4.91,5.2,6.63a28.92,28.92,0,0,0,23.57,0c3.35-1.72,5.19-4.07,5.19-6.63S222.85,424.29,219.5,422.58Z" style="fill:#BA68C8"></path><path d="M219.5,422.58a28.82,28.82,0,0,0-23.57,0c-3.35,1.71-5.2,4.07-5.2,6.62s1.85,4.91,5.2,6.63a28.92,28.92,0,0,0,23.57,0c3.35-1.72,5.19-4.07,5.19-6.63S222.85,424.29,219.5,422.58Z" style="opacity:0.4"></path><path d="M225.26,419.72c-4.67-2.7-10.9-4.18-17.55-4.18s-12.87,1.48-17.54,4.18c-4.47,2.58-6.94,5.95-6.94,9.48s2.47,6.9,6.94,9.49c4.67,2.69,10.9,4.17,17.54,4.17s12.88-1.48,17.55-4.17c4.47-2.59,6.94-6,6.94-9.49S229.73,422.3,225.26,419.72Zm-5.76,16.11a28.92,28.92,0,0,1-23.57,0c-3.35-1.72-5.2-4.07-5.2-6.63s1.85-4.91,5.2-6.62a28.82,28.82,0,0,1,23.57,0c3.35,1.71,5.19,4.07,5.19,6.62S222.85,434.11,219.5,435.83Z" style="fill:#BA68C8"></path><ellipse cx="207.71" cy="429.2" rx="16.1" ry="8.26" style="opacity:0.2"></ellipse><ellipse cx="207.71" cy="429.2" rx="16.1" ry="8.26" style="fill:#BA68C8"></ellipse><ellipse cx="207.71" cy="429.2" rx="16.1" ry="8.26" style="opacity:0.6000000000000001"></ellipse><path d="M219.1,425.55c-6.29-3.23-16.48-3.23-22.77,0-2.6,1.33-4.12,3-4.57,4.74.45,1.74,2,3.42,4.57,4.75,6.29,3.23,16.48,3.23,22.77,0,2.6-1.33,4.12-3,4.57-4.75C223.22,428.56,221.7,426.88,219.1,425.55Z" style="fill:#BA68C8"></path><path d="M219.1,425.55c-6.29-3.23-16.48-3.23-22.77,0-2.6,1.33-4.12,3-4.57,4.74.45,1.74,2,3.42,4.57,4.75,6.29,3.23,16.48,3.23,22.77,0,2.6-1.33,4.12-3,4.57-4.75C223.22,428.56,221.7,426.88,219.1,425.55Z" style="opacity:0.5"></path><polygon points="209.24 423.48 209.24 425.85 208.43 426.69 206.94 428.26 206.94 425.8 209.24 423.48" style="fill:#BA68C8"></polygon><polygon points="209.24 423.48 209.24 425.85 208.43 426.69 206.94 428.26 206.94 425.8 209.24 423.48" style="opacity:0.30000000000000004"></polygon><path d="M206.94,425.8v1.39a12.69,12.69,0,0,1-2.29.65,2.26,2.26,0,0,1-1,0,2.11,2.11,0,0,1-.47-.19c-.57-.34-.66-.84.42-1.46A3.76,3.76,0,0,1,206.94,425.8Z" style="fill:#BA68C8"></path><path d="M206.94,425.8v1.39a12.69,12.69,0,0,1-2.29.65,2.26,2.26,0,0,1-1,0,2.11,2.11,0,0,1-.47-.19c-.57-.34-.66-.84.42-1.46A3.76,3.76,0,0,1,206.94,425.8Z" style="opacity:0.45"></path><path d="M217.63,432.5v2L215.05,436l-1.91-1.11a9.76,9.76,0,0,1-7.4.34v-2l1.18-1.17-1.18.33a7.57,7.57,0,0,1-5.76-.66c-1.16-.67-1.69-1.4-1.69-2.15v-2l.21-.87-.71-.41v-2l1.92,1.1a3,3,0,0,0-1.42,2.19v0c0,.73.56,1.44,1.69,2.09,2.51,1.45,5,1,7.28.24,2.12-.69,3.66-1.5,4.89-.8.75.44.52,1-.33,1.47a4.26,4.26,0,0,1-3.64.21l-2.44,2.42a8.9,8.9,0,0,0,1.35.39,10.07,10.07,0,0,0,6-.72l1.91,1.1Z" style="fill:#BA68C8"></path><path d="M198.29,427.56v0c0,.73.56,1.44,1.69,2.09,2.51,1.45,5,1,7.28.24,2.12-.69,3.66-1.5,4.89-.8.75.44.52,1-.33,1.47a4.26,4.26,0,0,1-3.64.21l-2.44,2.42a8.9,8.9,0,0,0,1.35.39,10.07,10.07,0,0,0,6-.72l1.91,1.1,2.58-1.49v2L215.05,436l-1.91-1.11a9.76,9.76,0,0,1-7.4.34v-2l1.18-1.17-1.18.33a7.57,7.57,0,0,1-5.76-.66c-1.16-.67-1.69-1.4-1.69-2.15v-2l.21-.87" style="opacity:0.35000000000000003"></path><path d="M197.8,424.27v2l.7.41h0a4.1,4.1,0,0,1,1.21-1.35Z" style="opacity:0.45"></path><path d="M217.2,431.17a2.4,2.4,0,0,1-.19,1l-1.3-.74a2.53,2.53,0,0,0,1.47-2C217.19,430,217.2,431.11,217.2,431.17Z" style="fill:#BA68C8"></path><g style="opacity:0.30000000000000004"><path d="M217.2,431.17a2.4,2.4,0,0,1-.19,1l-1.3-.74a2.53,2.53,0,0,0,1.47-2C217.19,430,217.2,431.11,217.2,431.17Z"></path></g><path d="M217.2,432.25l-1.48-.85a2.52,2.52,0,0,0,1.48-2.27,1.36,1.36,0,0,0,0-.2c-.06-.7-.58-1.38-1.65-2h0a6.7,6.7,0,0,0-3.43-.9h-.33l-.31,0-.26,0h-.11l-.21,0a13,13,0,0,0-1.67.35c-.26.07-.52.14-.78.23l-1.08.35-.41.14a12.69,12.69,0,0,1-2.29.65,2.26,2.26,0,0,1-1,0,1.86,1.86,0,0,1-.46-.19c-.58-.33-.67-.84.41-1.46a3.76,3.76,0,0,1,3.32-.35l2.3-2.32a9.87,9.87,0,0,0-6.93.39l-1.91-1.1-2.6,1.5,1.91,1.1a2.91,2.91,0,0,0-1.42,2.2h0c0,.74.56,1.45,1.69,2.1,2.52,1.45,5,1,7.28.24,2.12-.69,3.66-1.5,4.88-.8.76.44.53,1-.32,1.46a4.23,4.23,0,0,1-3.64.22l-2.44,2.42a10.29,10.29,0,0,0,1.35.4,9.45,9.45,0,0,0,2.35.17,11.11,11.11,0,0,0,3.69-.9l1.92,1.1,2.57-1.49Z" style="fill:#BA68C8"></path><polygon points="213.13 432.89 213.13 434.93 215.05 436.03 215.05 433.99 213.13 432.89" style="fill:#BA68C8"></polygon><polygon points="213.13 432.89 213.13 434.93 215.05 436.03 215.05 433.99 213.13 432.89" style="opacity:0.45"></polygon><polygon points="197.79 424.27 200.4 422.77 202.31 423.87 200.41 423.07 197.79 424.27" style="fill:#f5f5f5"></polygon><path d="M203.62,426.15a3.76,3.76,0,0,1,3.32-.35l2.3-2.32-2.3,2.08A3.47,3.47,0,0,0,203.62,426.15Z" style="fill:#f5f5f5"></path><path d="M205.74,433.22a10.29,10.29,0,0,0,1.35.4,9.45,9.45,0,0,0,2.35.17,8.17,8.17,0,0,1-3.31-.67l2.05-2.32Z" style="fill:#f5f5f5"></path><polygon points="213.13 432.89 215.05 433.75 217.62 432.5 215.05 433.99 213.13 432.89" style="fill:#f5f5f5"></polygon><path d="M190.37,420.06c6.78-4.12,17.34-4.52,17.34-4.52-6.64,0-12.87,1.48-17.54,4.18-4.47,2.58-6.94,5.95-6.94,9.48C183.23,429.2,183.48,424.25,190.37,420.06Z" style="fill:#f5f5f5"></path><path d="M205.74,443.93c7.19.32,14.57-1.1,20.07-4.28,5.72-3.3,8.17-7.78,7.34-12.09,0,0,1.07,7-7.77,11.83S205.74,443.93,205.74,443.93Z" style="fill:#f5f5f5"></path><path d="M233.45,422a16.48,16.48,0,0,0-6.11-5.65c-10-5.77-26.2-5.77-36.2,0A16.55,16.55,0,0,0,185,422h-1.38v5.23h0c.18,3.64,2.67,7.24,7.47,10,10,5.77,26.21,5.77,36.2,0,4.81-2.78,7.31-6.38,7.5-10h0V422Z" style="fill:#BA68C8"></path><g style="opacity:0.25"><path d="M233.45,422a16.48,16.48,0,0,0-6.11-5.65c-10-5.77-26.2-5.77-36.2,0A16.55,16.55,0,0,0,185,422h-1.38v5.23h0c.18,3.64,2.67,7.24,7.47,10,10,5.77,26.21,5.77,36.2,0,4.81-2.78,7.31-6.38,7.5-10h0V422Z"></path></g><path d="M209.24,412c-6.55,0-13.1,1.44-18.1,4.33A16.55,16.55,0,0,0,185,422h-1.38v5.23h0c.18,3.64,2.67,7.24,7.47,10,5,2.88,11.55,4.32,18.1,4.32Z" style="opacity:0.1"></path><path d="M195.26,414.43a28.3,28.3,0,0,0-4.12,1.93A16.55,16.55,0,0,0,185,422h-1.38v5.23h0c.18,3.64,2.67,7.24,7.47,10a29.39,29.39,0,0,0,4.12,1.93Z" style="opacity:0.1"></path><path d="M223.22,414.43a27.82,27.82,0,0,1,4.12,1.93,16.55,16.55,0,0,1,6.11,5.65h1.39v5.23h0c-.19,3.64-2.69,7.24-7.5,10a28.87,28.87,0,0,1-4.12,1.93Z" style="fill:#BA68C8"></path><path d="M227.34,411.56c-10-5.77-26.2-5.77-36.2,0s-10,15.13,0,20.9,26.21,5.77,36.2,0S237.34,417.34,227.34,411.56Z" style="fill:#BA68C8"></path><path d="M227.34,411.56c-10-5.77-26.2-5.77-36.2,0s-10,15.13,0,20.9,26.21,5.77,36.2,0S237.34,417.34,227.34,411.56Z" style="opacity:0.2"></path><path d="M221,415.39a28.82,28.82,0,0,0-23.57,0c-3.35,1.72-5.2,4.07-5.2,6.63s1.85,4.9,5.2,6.62a28.82,28.82,0,0,0,23.57,0c3.35-1.72,5.19-4.07,5.19-6.62S224.38,417.11,221,415.39Z" style="fill:#BA68C8"></path><path d="M221,415.39a28.82,28.82,0,0,0-23.57,0c-3.35,1.72-5.2,4.07-5.2,6.63s1.85,4.9,5.2,6.62a28.82,28.82,0,0,0,23.57,0c3.35-1.72,5.19-4.07,5.19-6.62S224.38,417.11,221,415.39Z" style="opacity:0.4"></path><path d="M226.78,412.53c-4.66-2.69-10.89-4.18-17.54-4.18s-12.87,1.49-17.54,4.18c-4.47,2.59-6.94,6-6.94,9.49s2.47,6.9,6.94,9.48c4.67,2.69,10.9,4.18,17.54,4.18s12.88-1.49,17.54-4.18c4.48-2.58,6.94-5.95,6.94-9.48S231.26,415.12,226.78,412.53ZM221,428.64a28.82,28.82,0,0,1-23.57,0c-3.35-1.72-5.2-4.07-5.2-6.62s1.85-4.91,5.2-6.63a28.82,28.82,0,0,1,23.57,0c3.35,1.72,5.19,4.07,5.19,6.63S224.38,426.92,221,428.64Z" style="fill:#BA68C8"></path><ellipse cx="209.24" cy="422.01" rx="16.1" ry="8.26" style="opacity:0.2"></ellipse><ellipse cx="209.24" cy="422.01" rx="16.1" ry="8.26" style="fill:#BA68C8"></ellipse><ellipse cx="209.24" cy="422.01" rx="16.1" ry="8.26" style="opacity:0.6000000000000001"></ellipse><path d="M220.63,418.36c-6.29-3.23-16.48-3.23-22.77,0-2.6,1.33-4.12,3-4.57,4.75.45,1.73,2,3.41,4.57,4.74,6.29,3.23,16.48,3.23,22.77,0,2.6-1.33,4.12-3,4.57-4.74C224.75,421.37,223.23,419.69,220.63,418.36Z" style="fill:#BA68C8"></path><path d="M220.63,418.36c-6.29-3.23-16.48-3.23-22.77,0-2.6,1.33-4.12,3-4.57,4.75.45,1.73,2,3.41,4.57,4.74,6.29,3.23,16.48,3.23,22.77,0,2.6-1.33,4.12-3,4.57-4.74C224.75,421.37,223.23,419.69,220.63,418.36Z" style="opacity:0.5"></path><polygon points="210.77 416.3 210.77 418.66 209.96 419.51 208.47 421.07 208.47 418.61 210.77 416.3" style="fill:#BA68C8"></polygon><polygon points="210.77 416.3 210.77 418.66 209.96 419.51 208.47 421.07 208.47 418.61 210.77 416.3" style="opacity:0.30000000000000004"></polygon><path d="M208.47,418.61V420a12.69,12.69,0,0,1-2.29.65,2.44,2.44,0,0,1-1,0,2.72,2.72,0,0,1-.47-.19c-.57-.34-.66-.85.42-1.47A3.8,3.8,0,0,1,208.47,418.61Z" style="fill:#BA68C8"></path><path d="M208.47,418.61V420a12.69,12.69,0,0,1-2.29.65,2.44,2.44,0,0,1-1,0,2.72,2.72,0,0,1-.47-.19c-.57-.34-.66-.85.42-1.47A3.8,3.8,0,0,1,208.47,418.61Z" style="opacity:0.45"></path><path d="M219.16,425.31v2l-2.59,1.49-1.91-1.1a9.69,9.69,0,0,1-7.39.33v-2l1.17-1.16-1.17.32a7.53,7.53,0,0,1-5.76-.66c-1.16-.66-1.69-1.4-1.69-2.15v-2l.21-.87-.71-.41v-2l1.91,1.11a2.94,2.94,0,0,0-1.41,2.19v0c0,.73.56,1.44,1.69,2.1,2.51,1.45,5,1,7.28.24,2.12-.7,3.66-1.51,4.88-.8.76.43.53,1-.32,1.46a4.22,4.22,0,0,1-3.64.21L207.27,426a8.63,8.63,0,0,0,1.35.4,10,10,0,0,0,6-.73l1.91,1.1Z" style="fill:#BA68C8"></path><path d="M199.82,420.38v0c0,.73.56,1.44,1.69,2.1,2.51,1.45,5,1,7.28.24,2.12-.7,3.66-1.51,4.88-.8.76.43.53,1-.32,1.46a4.22,4.22,0,0,1-3.64.21L207.27,426a8.63,8.63,0,0,0,1.35.4,10,10,0,0,0,6-.73l1.91,1.1,2.59-1.49v2l-2.59,1.49-1.91-1.1a9.69,9.69,0,0,1-7.39.33v-2l1.17-1.16-1.17.32a7.53,7.53,0,0,1-5.76-.66c-1.16-.66-1.69-1.4-1.69-2.15v-2l.21-.87" style="opacity:0.35000000000000003"></path><path d="M199.32,417.08v2l.71.41h0a4.23,4.23,0,0,1,1.21-1.35Z" style="opacity:0.45"></path><path d="M218.73,424a2.5,2.5,0,0,1-.19,1l-1.3-.74a2.55,2.55,0,0,0,1.47-2C218.72,422.81,218.73,423.93,218.73,424Z" style="fill:#BA68C8"></path><g style="opacity:0.30000000000000004"><path d="M218.73,424a2.5,2.5,0,0,1-.19,1l-1.3-.74a2.55,2.55,0,0,0,1.47-2C218.72,422.81,218.73,423.93,218.73,424Z"></path></g><path d="M218.72,425.07l-1.47-.86a2.52,2.52,0,0,0,1.47-2.26,1.27,1.27,0,0,0,0-.2c-.06-.71-.58-1.39-1.65-2h0a6.8,6.8,0,0,0-3.43-.9h-.33l-.31,0-.27,0-.1,0-.21,0a15,15,0,0,0-1.67.35l-.78.23-1.08.35-.41.14a11.91,11.91,0,0,1-2.29.65,2.44,2.44,0,0,1-1,0,1.89,1.89,0,0,1-.46-.2c-.58-.33-.67-.83.41-1.46a3.76,3.76,0,0,1,3.32-.35l2.3-2.31a9.81,9.81,0,0,0-6.93.38l-1.91-1.1-2.61,1.5,1.92,1.1a2.94,2.94,0,0,0-1.42,2.2v0c0,.73.56,1.44,1.69,2.1,2.52,1.45,5,1,7.28.23,2.12-.69,3.66-1.5,4.88-.8.76.44.53,1-.32,1.47a4.22,4.22,0,0,1-3.64.21L207.27,426a8.74,8.74,0,0,0,3.7.57,10.7,10.7,0,0,0,3.69-.9l1.91,1.11,2.58-1.49Z" style="fill:#BA68C8"></path><polygon points="214.66 425.7 214.66 427.74 216.57 428.84 216.57 426.8 214.66 425.7" style="fill:#BA68C8"></polygon><polygon points="214.66 425.7 214.66 427.74 216.57 428.84 216.57 426.8 214.66 425.7" style="opacity:0.45"></polygon><polygon points="199.32 417.08 201.93 415.58 203.84 416.68 201.94 415.89 199.32 417.08" style="fill:#f5f5f5"></polygon><path d="M205.15,419a3.76,3.76,0,0,1,3.32-.35l2.3-2.31-2.3,2.07A3.5,3.5,0,0,0,205.15,419Z" style="fill:#f5f5f5"></path><path d="M207.27,426a8.74,8.74,0,0,0,3.7.57,8.33,8.33,0,0,1-3.32-.66l2.06-2.33Z" style="fill:#f5f5f5"></path><polygon points="214.66 425.7 216.57 426.56 219.15 425.32 216.57 426.8 214.66 425.7" style="fill:#f5f5f5"></polygon><path d="M191.9,412.87c6.78-4.11,17.34-4.52,17.34-4.52-6.64,0-12.87,1.49-17.54,4.18-4.47,2.59-6.94,6-6.94,9.49C184.76,422,185,417.06,191.9,412.87Z" style="fill:#f5f5f5"></path><path d="M207.27,436.75c7.19.32,14.57-1.11,20.07-4.29,5.72-3.3,8.17-7.78,7.34-12.08,0,0,1.07,7-7.77,11.82S207.27,436.75,207.27,436.75Z" style="fill:#f5f5f5"></path></g></g><g id="freepik--Money--inject-3"><g id="freepik--money--inject-3"><polygon points="184.87 392.75 90.92 338.51 43.95 365.63 137.89 419.87 184.87 392.75" style="fill:#BA68C8"></polygon><path d="M48.89,365.63l89,51.38,42-24.26-89-51.39Zm2.47,0,39.56-22.84,86.53,50-39.56,22.83Z" style="opacity:0.4"></path><g style="opacity:0.4"><path d="M116.16,393.23a37,37,0,0,1-18-4.4h0c-4.93-2.84-7.75-6.73-7.75-10.65,0-3.6,2.31-6.92,6.52-9.35,9-5.18,24.14-4.86,33.79.72,4.93,2.84,7.76,6.73,7.76,10.65,0,3.6-2.31,6.92-6.52,9.35S122,393.23,116.16,393.23ZM112.65,366c-5.66,0-11.18,1.18-15.34,3.58-3.93,2.27-6.1,5.33-6.1,8.62,0,3.61,2.67,7.23,7.34,9.92h0c9.42,5.45,24.2,5.77,33,.72,3.93-2.27,6.1-5.33,6.1-8.62,0-3.61-2.67-7.23-7.34-9.92A36,36,0,0,0,112.65,366Z"></path></g><g style="opacity:0.2"><path d="M116.16,390.2a34,34,0,0,1-16.51-4c-4-2.29-6.24-5.21-6.24-8,0-2.47,1.78-4.85,5-6.71a29.08,29.08,0,0,1,14.24-3.29,34.05,34.05,0,0,1,16.51,4c4,2.29,6.24,5.21,6.24,8,0,2.47-1.78,4.85-5,6.71A29.11,29.11,0,0,1,116.16,390.2Z"></path></g><path d="M133,410.57l-25.83-15,2.07.26a43.06,43.06,0,0,0,5.57.36,39.3,39.3,0,0,0,18-4.73c4.57-2.64,9.18-7.36,9.18-12a11,11,0,0,0-1-4.63l-.55-1.21,28.28,16.42-3.1,1.79c-.53.31-.82.68-.82,1.06s.29.76.82,1.07l3.11,1.79-25.76,14.77L140.16,409a5.05,5.05,0,0,0-4.53,0Z" style="opacity:0.2"></path><path d="M144.31,400.08A8.81,8.81,0,0,1,140,399a3.33,3.33,0,0,1-1.94-2.73,2.88,2.88,0,0,1,1.66-2.43,9,9,0,0,1,8.1.16,3.36,3.36,0,0,1,2,2.74,2.89,2.89,0,0,1-1.67,2.43A7.75,7.75,0,0,1,144.31,400.08Z" style="fill:#BA68C8"></path><path d="M88.56,384.69,60.34,368.43l3.1-1.79a1.35,1.35,0,0,0,.81-1.07c0-.38-.29-.75-.81-1.05l-3.1-1.8,25.71-14.65,2.68,1.55a5.06,5.06,0,0,0,4.52,0l2.68-1.55,25.82,14.86-2.09-.27a44.82,44.82,0,0,0-5.58-.36,39.62,39.62,0,0,0-18.18,4.6c-6,3.44-9,7.12-9,11A16.1,16.1,0,0,0,88,383.49Z" style="opacity:0.2"></path><path d="M85.19,366.09A8.82,8.82,0,0,1,80.88,365h0a3.35,3.35,0,0,1-1.95-2.73,2.88,2.88,0,0,1,1.67-2.43,9,9,0,0,1,8.1.17,3.36,3.36,0,0,1,1.94,2.73A2.88,2.88,0,0,1,89,365.2,7.78,7.78,0,0,1,85.19,366.09Z" style="fill:#BA68C8"></path><polygon points="184.87 392.75 184.87 404.17 137.89 431.29 137.89 419.87 184.87 392.75" style="fill:#BA68C8"></polygon><g style="opacity:0.1"><polygon points="184.87 392.75 184.87 404.17 137.89 431.29 137.89 419.87 184.87 392.75"></polygon></g><g style="opacity:0.1"><polygon points="137.89 422.41 152.72 414.16 137.89 423.11 137.89 422.41"></polygon><polygon points="184.86 398.17 179.92 401.31 184.86 398.75 184.86 398.17"></polygon><polygon points="184.86 400.89 160.15 415.58 184.86 401.73 184.86 400.89"></polygon><polygon points="137.89 425.13 162.61 411.31 137.89 426.03 137.89 425.13"></polygon></g><polygon points="137.89 431.29 43.94 377.05 43.95 365.63 137.89 419.87 137.89 431.29" style="fill:#BA68C8"></polygon><g style="opacity:0.2"><polygon points="137.89 431.29 43.94 377.05 43.95 365.63 137.89 419.87 137.89 431.29"></polygon></g><g style="opacity:0.30000000000000004;mix-blend-mode:multiply"><polygon points="137.89 422.41 132.94 419.87 137.89 423.11 137.89 422.41"></polygon></g><g style="opacity:0.30000000000000004;mix-blend-mode:multiply"><polygon points="137.89 425.13 113.03 411.24 137.89 426.03 137.89 425.13"></polygon></g><g style="opacity:0.30000000000000004;mix-blend-mode:multiply"><polygon points="43.94 371 61.25 381.33 43.95 371.68 43.94 371"></polygon></g><g style="opacity:0.30000000000000004;mix-blend-mode:multiply"><polygon points="43.94 373.87 53.83 379.9 43.95 374.51 43.94 373.87"></polygon></g><polygon points="145.21 367.95 96.6 396.02 82.64 387.97 131.24 359.89 145.21 367.95" style="fill:#455a64"></polygon><polygon points="82.64 387.97 82.64 400.39 96.6 408.45 96.6 396.02 82.64 387.97" style="fill:#37474f"></polygon><polygon points="96.6 408.45 97.47 407.94 96.6 407.44 96.6 408.45" style="fill:#263238"></polygon><polygon points="145.21 367.95 145.21 369.85 143.57 368.9 145.21 367.95" style="fill:#263238"></polygon><g style="opacity:0.30000000000000004"><polygon points="97.47 407.94 97.47 396.53 96.6 396.02 96.6 407.44 97.47 407.94"></polygon></g><g style="opacity:0.2"><polygon points="97.47 396.53 144.44 369.4 143.57 368.9 96.6 396.02 97.47 396.53"></polygon></g><polygon points="133.61 361.26 84.99 389.33 84.24 388.89 132.85 360.83 133.61 361.26" style="fill:#fafafa"></polygon><polygon points="84.99 389.33 84.99 401.75 84.23 401.31 84.24 388.89 84.99 389.33" style="fill:#e0e0e0"></polygon><polygon points="143.63 367.02 95.01 395.09 94.26 394.66 142.87 366.59 143.63 367.02" style="fill:#fafafa"></polygon><polygon points="95.01 395.09 95.01 407.51 94.25 407.07 94.26 394.66 95.01 395.09" style="fill:#e0e0e0"></polygon></g></g><g id="freepik--Character--inject-3"><g id="freepik--character--inject-3"><g id="freepik--character--inject-3"><path d="M388,111.56c-7.35-.62-10.81,1.37-14.06,8.24-2.81,5.94-10.25,25.32-10.82,28.56-.52,2.9,4.63,17.78,4.63,17.78l10.67-2-4.05-12.85,10.18-23.12Z" style="fill:#ffa8a7"></path><path d="M389.35,111.56c-5.54-.92-9.64-2.08-13.31,2.43s-11.94,28.88-13,31.71-.52,4.9,1.61,10.75c0,0,6.89-3.4,11.19-1.23L374.6,151l11-23.28Z" style="fill:#BA68C8"></path><path d="M389.35,111.56c-5.54-.92-9.64-2.08-13.31,2.43s-11.94,28.88-13,31.71-.52,4.9,1.61,10.75c0,0,6.89-3.4,11.19-1.23L374.6,151l11-23.28Z" style="opacity:0.15"></path><path d="M426.45,302.34a83,83,0,0,1,1.5,8.23c.4,3.11.64,5.41,1.55,10.73.83,4.85,1.45,8.55-2,12.19-3,3.21-8.33,4.44-10.08.8-2-4.17-1.73-10.93-1.46-15.14s.2-5.44.24-8.8c0-3,.18-4.16.34-6.71C419.8,303.47,423.22,302.6,426.45,302.34Z" style="fill:#37474f"></path><path d="M426.45,302.34c-.05-4,0-9.22.36-16.2.42-8.13.48-14.47.45-23.08,0-6.52-.37-12.28-2.68-24.78,2.45-25.09,3.34-51,.38-60.56-2.55-8.18-5.14-10.91-7.43-14.91-1.19-2.07-3.36-5.15-3.36-7.93A51.24,51.24,0,0,1,396,158.41c-11.63.11-15.7-3-15.7-3s-5.24,60.79-4.15,80.63c.65,11.74,1.59,29.12,1.94,37.66.27,6.59,1,15.16,1,18.79a30.28,30.28,0,0,1-1.85,9.26,65.93,65.93,0,0,1-3.81,9.39,9.18,9.18,0,0,1-1.41,2.22,26.78,26.78,0,0,1-2.6,2.53c-1.88,1.62-2.82,2.42-2.66,3.92s1.28,2.1,2.55,2.48c3,.9,6.43.53,9.45,0s6.39-2,7.68-4.83a12,12,0,0,0,.72-2.66,38.13,38.13,0,0,1,2.3-8.75,19.9,19.9,0,0,1,1.68-3.4,8.58,8.58,0,0,0,1.91-3.82c.12-1.19-.8-2.88-2-4.68l0,0c-1-1.57-.75-2.65-.39-7.58.79-10.68,3-18.36,4.79-31.32a60,60,0,0,0-.38-18.76c1.24-8.5,3.39-17.41,4.65-23.27,2,12.27,3.36,16.75,4.47,26C405.72,252,413,279,414.11,285.89s1.87,11.57,2.41,17.2c.46,4.88.82,14.7,1.44,19.17,1,7.15,8.35,5,9.54-1.35C428.29,316.71,426.51,307.82,426.45,302.34Z" style="fill:#ffa8a7"></path><path d="M390.64,318l-1.11-.17c-.07-3.48.13-6.67-.74-8.32l1.59-4.28Z" style="fill:#263238"></path><path d="M393.37,302.15c-.25,2.39-1.6,4.84-1.7,9.55a41,41,0,0,0,.12,6l-1.15.31-.26-12.77Z" style="fill:#263238"></path><path d="M367.06,321.24s.06,1.39.66,1.85,1.86,1.83,8,1.47,8.29-1.88,10.39-3.79,2.65-6.94,3-9.31c.61-4.59,2.52-7,4.3-9.31a4.11,4.11,0,0,0,.18-2.39s-3.55.59-5.75,6.21-5.44,11.28-10.4,12.84A84.92,84.92,0,0,1,367.06,321.24Z" style="fill:#263238"></path><path d="M393,296.27c-.88-1.54-1.68-2-2.52-3.31a6.52,6.52,0,0,0-2,3.24c-.38,1.23-1.36,7.25-2.84,12.05-1.11,3.6-3,5.5-5.55,6.48a10.27,10.27,0,0,1-5.06.57h0c-3.18-.44-2.44-2.74-2.44-2.74-.74,1-3.78,3.5-5.58,5.33-1,1-.54,2.61.23,3.62.89.76,3,2.3,10.59,1.19,6.77-1,8.35-4.11,9-5.52a33,33,0,0,0,1.4-6.35,20.12,20.12,0,0,1,2.38-6.73c.15-.26.3-.51.44-.72h0c.46-.67,1-1.41,1.6-2.14.48-.58.85-.84,1-1.39A5.14,5.14,0,0,0,393,296.27Z" style="fill:#37474f"></path><path d="M378.34,277.81c-.08-1.43-.15-2.83-.21-4.16-.35-8.54-1.29-25.92-1.94-37.66-1.09-19.84,4.15-80.63,4.15-80.63s4.07,3.16,15.7,3a51.24,51.24,0,0,0,18.13-3.53c0,2.78,2.17,5.86,3.36,7.93,2.29,4,4.88,6.73,7.43,14.91,3,9.54,2.07,35.47-.38,60.56,2.31,12.5,2.78,18.73,2.81,25.25,0,8.61-.09,13-.51,21.14-4.12,3.09-12.77,1.22-12.77,1.22C413,279,405.72,252,404.17,239.15c-1.11-9.28-2.43-13.76-4.47-26l-4.65,23.27a60,60,0,0,1,.38,18.76c-1.33,9.43-2.84,16.06-3.87,23.08C389.72,280.16,381.09,280.67,378.34,277.81Z" style="fill:#455a64"></path><path d="M380.05,153.47l-.11,6.76s4.45,3.41,12.63,4,19.65-2.68,22.83-5.08a11.21,11.21,0,0,1-.86-6.54,40.69,40.69,0,0,1-20.26,4.53C382.83,156.55,380.05,153.47,380.05,153.47Z" style="fill:#37474f"></path><path d="M399.7,213.12l-4.79-28.2s-7.46-1.9-11.42-8a14.77,14.77,0,0,0,8.67,10.23l5.35,26.4-2.05,20.23Z" style="fill:#37474f"></path><path d="M378.65,142.33c.18,3.37,1.69,13,1.69,13,13.77,9.32,33.83-.48,33.83-.48L417.92,132s-8.23-8.44-1.49-19l-10.92-.7L394,111.79l-6-.23c-4.2,3.09-11.62,11.55-13,15S372.54,135.13,378.65,142.33Z" style="fill:#BA68C8"></path><path d="M392.16,141.77c1.19,1.55,6.72,3.45,11.26,1.43a10.29,10.29,0,0,0,6.33-8.32,9,9,0,0,1-5.71,9.86C397,147.59,392.52,143.32,392.16,141.77Z" style="fill:#263238;opacity:0.1"></path><path d="M417.15,85s0-.09,0-.13,0-.2,0-.3v-.22h0c-.29-12.71-11-18.93-21.69-18.93h0a19.73,19.73,0,0,0-16.92,9.45c-6.2,1.6-4.61,10.18,1.59,11.72l0,.08c0,2.12,0,4.36,0,6.39.05,6.46-4.2,8.8-4.2,8.8s6.58,8.39,24.66,7.5C418.21,108.51,417.22,92.82,417.15,85Z" style="fill:#263238"></path><path d="M412.11,66l-1,5.45a2.74,2.74,0,0,0,3.32-2.13A2.9,2.9,0,0,0,412.11,66Z" style="fill:#263238"></path><path d="M417.15,70.55l-5.61.61a2.72,2.72,0,0,0,3,2.51A2.91,2.91,0,0,0,417.15,70.55Z" style="fill:#263238"></path><path d="M405.5,113V97.11s2.05,2,5-.16c2.68-2,3.8-6.19,1.92-8.36-1.33-1.55-5.45-2.39-7.07.93,0,0-4.78-.24-11-4.66s-7.72-8.34-11.54-8.78c-1.8,1.37-3.54,5.41-3.36,16.06.14,7.88,3.67,11.64,5.47,13,1.47,1.11,3.35,1.26,6.52.74v7.47L388,127.68Z" style="fill:#ffa8a7"></path><path d="M405.39,88.78v4.37h0a3.08,3.08,0,0,1-3.11-3.05V85.88Z" style="fill:#263238"></path><path d="M393.73,89.45A1.45,1.45,0,0,0,395.09,91a1.46,1.46,0,0,0,1.52-1.4,1.44,1.44,0,1,0-2.88-.13Z" style="fill:#263238"></path><path d="M381.2,85.37l3-2.05a1.76,1.76,0,0,0-2.48-.48A1.85,1.85,0,0,0,381.2,85.37Z" style="fill:#263238"></path><path d="M395,97.18l-4.1,1.55a2.15,2.15,0,0,0,2.79,1.29A2.24,2.24,0,0,0,395,97.18Z" style="fill:#f28f8f"></path><path d="M382.73,88.52a1.44,1.44,0,0,0,1.36,1.53,1.47,1.47,0,0,0,1.52-1.4,1.44,1.44,0,1,0-2.88-.13Z" style="fill:#263238"></path><polygon points="390.13 87.79 389.92 95.52 385.77 94.26 390.13 87.79" style="fill:#f28f8f"></polygon><path d="M391.46,105.87c3.35-.43,10.24-2.37,11.32-5a6.91,6.91,0,0,1-2.42,3.41c-2.06,1.73-8.9,3.68-8.9,3.68Z" style="fill:#f28f8f"></path><path d="M400.56,65.92c-6.92-1.58-9.68.42-16.67-.32-2.88-.3-5.5-.44-7.42.53-2.19,1.1-3.47,3.51-3.18,6.63.5,5.25,6.17,6.6,6.17,6.6s4.8-10.82,11.18-10.73S400.56,65.92,400.56,65.92Z" style="fill:#263238"></path></g><g id="freepik--Prints--inject-3"><g id="freepik--character--inject-3"><polygon points="314.52 175.73 372.41 209.22 372.41 192.83 314.51 159.34 314.52 175.73" style="fill:#e0e0e0"></polygon><polygon points="412.55 186.05 372.41 209.22 372.41 192.83 412.55 169.66 412.55 186.05" style="fill:#f0f0f0"></polygon><polygon points="314.51 159.34 354.65 136.17 412.55 169.66 372.41 192.83 314.51 159.34" style="fill:#fafafa"></polygon><path d="M394.09,165.4a6.12,6.12,0,0,1,1.14-.33,5.82,5.82,0,0,1,1.06-.1,5,5,0,0,1,.91.08,3.22,3.22,0,0,1,.66.21c.09,0,.13.1.12.16s-.05.11-.12.15l-.7.41a.87.87,0,0,1-.32.11,1.94,1.94,0,0,1-.33,0,3.29,3.29,0,0,0-.88,0,3,3,0,0,0-1.09.41,2.27,2.27,0,0,0-.44.32,1,1,0,0,0-.25.33.35.35,0,0,0,0,.3.49.49,0,0,0,.24.26,1.34,1.34,0,0,0,.48.15,2.36,2.36,0,0,0,.61-.06c.23-.06.5-.14.82-.25l1.14-.42a11.27,11.27,0,0,1,1.32-.41,5.67,5.67,0,0,1,1.1-.15,3.15,3.15,0,0,1,.94.11,3.63,3.63,0,0,1,.85.35,1.73,1.73,0,0,1,.58.51,1,1,0,0,1,.17.6,1.33,1.33,0,0,1-.24.66,3.11,3.11,0,0,1-.68.68l.68.39a.21.21,0,0,1,.11.16.18.18,0,0,1-.11.15l-.81.47a.49.49,0,0,1-.27.06.54.54,0,0,1-.27-.06l-.68-.39a6.81,6.81,0,0,1-1.08.35,7.23,7.23,0,0,1-1.09.17,5,5,0,0,1-1-.05,2.74,2.74,0,0,1-.89-.29q-.14-.06-.12-.15c0-.06,0-.11.12-.16l.69-.4a1,1,0,0,1,.32-.12,1.27,1.27,0,0,1,.33,0l.43.05a2.14,2.14,0,0,0,.5,0,3.93,3.93,0,0,0,.59-.15,3.6,3.6,0,0,0,.7-.33,3.07,3.07,0,0,0,.53-.36,1.27,1.27,0,0,0,.34-.37.49.49,0,0,0,.08-.34c0-.11-.1-.21-.25-.3a.93.93,0,0,0-.5-.13,2.52,2.52,0,0,0-.66.11,9.44,9.44,0,0,0-.9.3c-.34.12-.74.27-1.2.42a9,9,0,0,1-1.15.34,5.48,5.48,0,0,1-1,.13,3.59,3.59,0,0,1-.93-.12,3.56,3.56,0,0,1-.89-.38,1.58,1.58,0,0,1-.57-.5,1,1,0,0,1-.18-.58,1.19,1.19,0,0,1,.2-.62,2.55,2.55,0,0,1,.55-.61l-.68-.4a.18.18,0,0,1-.11-.15.21.21,0,0,1,.11-.16l.81-.46a.56.56,0,0,1,.54,0Z" style="fill:#BA68C8"></path></g><polygon points="344.69 182.12 372.41 198.13 389.05 188.52 372.41 199.12 344.69 182.12" style="opacity:0.1"></polygon><path d="M320.09,166.48s-.92,5.18-.46,7.81c0,0,7.26-.18,19.51,3.2Z" style="opacity:0.1"></path><polygon points="320.08 166.48 339.14 177.49 318.06 171.4 320.08 166.48" style="fill:#fafafa"></polygon><path d="M344.69,184.49l20.89,19.21s.58-2.64,4.59-4.5Z" style="opacity:0.1"></path><polygon points="344.69 184.49 364.31 201.01 370.17 199.21 344.69 184.49" style="fill:#fafafa"></polygon><path d="M405.86,177.89c-.11-.17-.18-.26-.18-.26l-13.2,7.62L407.34,184A9.06,9.06,0,0,0,405.86,177.89Z" style="opacity:0.1"></path><polygon points="392.48 185.25 405.68 177.63 410.08 179.95 392.48 185.25" style="fill:#fafafa"></polygon><path d="M324.72,161.81a.53.53,0,0,1-.45-.25.52.52,0,0,1,.19-.7l23.86-13.81a.51.51,0,0,1,.51.89L325,161.74A.47.47,0,0,1,324.72,161.81Z" style="fill:#455a64"></path><path d="M330.26,165a.5.5,0,0,1-.44-.25.51.51,0,0,1,.18-.7l23.86-13.81a.52.52,0,0,1,.52.89L330.52,165A.58.58,0,0,1,330.26,165Z" style="fill:#455a64"></path><path d="M335.81,168.22a.54.54,0,0,1-.45-.26.52.52,0,0,1,.19-.7l23.86-13.81a.52.52,0,0,1,.7.19.51.51,0,0,1-.19.7l-23.86,13.81A.59.59,0,0,1,335.81,168.22Z" style="fill:#455a64"></path><path d="M341.35,171.42a.5.5,0,0,1-.44-.26.51.51,0,0,1,.19-.7L365,156.65a.51.51,0,0,1,.7.19.51.51,0,0,1-.18.7l-23.86,13.81A.48.48,0,0,1,341.35,171.42Z" style="fill:#455a64"></path><path d="M346.9,174.62a.52.52,0,0,1-.45-.26.52.52,0,0,1,.19-.7l23.86-13.8a.52.52,0,0,1,.7.18.51.51,0,0,1-.19.7l-23.86,13.81A.47.47,0,0,1,346.9,174.62Z" style="fill:#455a64"></path><path d="M352.44,177.82a.51.51,0,0,1-.25-.95L376,163.06a.51.51,0,0,1,.7.19.5.5,0,0,1-.18.69L352.7,177.75A.48.48,0,0,1,352.44,177.82Z" style="fill:#455a64"></path><path d="M358,181a.53.53,0,0,1-.45-.25.52.52,0,0,1,.19-.7l23.86-13.81a.51.51,0,1,1,.51.89L358.24,181A.47.47,0,0,1,358,181Z" style="fill:#455a64"></path><path d="M352.57,145.77a.49.49,0,0,1-.44-.26.5.5,0,0,1,.18-.69l5.42-3.17a.51.51,0,0,1,.7.19.5.5,0,0,1-.19.69l-5.41,3.17A.48.48,0,0,1,352.57,145.77Z" style="fill:#455a64"></path><path d="M358.11,149a.52.52,0,0,1-.44-.25.51.51,0,0,1,.19-.7l5.42-3.17a.51.51,0,0,1,.7.19.52.52,0,0,1-.19.7l-5.42,3.16A.48.48,0,0,1,358.11,149Z" style="fill:#455a64"></path><path d="M363.66,152.17a.5.5,0,0,1-.44-.25.51.51,0,0,1,.18-.7l5.42-3.17a.51.51,0,0,1,.51.89l-5.41,3.16A.48.48,0,0,1,363.66,152.17Z" style="fill:#455a64"></path><path d="M369.21,155.38a.54.54,0,0,1-.45-.26.51.51,0,0,1,.19-.7l5.42-3.17a.51.51,0,0,1,.51.89l-5.42,3.17A.59.59,0,0,1,369.21,155.38Z" style="fill:#455a64"></path><path d="M374.75,158.58a.49.49,0,0,1-.44-.26.52.52,0,0,1,.18-.7l5.42-3.16a.51.51,0,1,1,.51.88L375,158.51A.48.48,0,0,1,374.75,158.58Z" style="fill:#455a64"></path><path d="M380.3,161.78a.51.51,0,0,1-.26-1l5.42-3.16a.51.51,0,1,1,.51.88l-5.42,3.17A.47.47,0,0,1,380.3,161.78Z" style="fill:#455a64"></path><path d="M385.84,165a.49.49,0,0,1-.44-.26.51.51,0,0,1,.18-.69l5.42-3.17a.51.51,0,0,1,.7.19.5.5,0,0,1-.19.69l-5.41,3.17A.48.48,0,0,1,385.84,165Z" style="fill:#455a64"></path><polygon points="375.97 178.21 380.38 180.75 381.01 180.39 376.61 177.85 375.97 178.21" style="fill:#455a64"></polygon><polygon points="380.86 175.39 385.27 177.93 385.9 177.57 381.5 175.02 380.86 175.39" style="fill:#455a64"></polygon><polygon points="384.97 173.02 389.37 175.56 389.78 175.33 385.38 172.78 384.97 173.02" style="fill:#455a64"></polygon><polygon points="378.49 176.76 382.89 179.31 383.21 179.12 378.8 176.58 378.49 176.76" style="fill:#455a64"></polygon><polygon points="381.93 174.77 386.34 177.31 386.65 177.13 382.25 174.59 381.93 174.77" style="fill:#455a64"></polygon><polygon points="384.16 173.49 388.56 176.03 388.88 175.85 384.48 173.3 384.16 173.49" style="fill:#455a64"></polygon><polygon points="377.1 177.56 381.5 180.1 382.63 179.46 378.22 176.91 377.1 177.56" style="fill:#455a64"></polygon><polygon points="379.35 176.26 383.75 178.81 384.87 178.16 380.47 175.62 379.35 176.26" style="fill:#455a64"></polygon><polygon points="382.72 174.32 387.12 176.86 387.89 176.42 383.49 173.88 382.72 174.32" style="fill:#455a64"></polygon><polygon points="365.54 184.23 369.95 186.78 370.58 186.41 366.18 183.87 365.54 184.23" style="fill:#455a64"></polygon><polygon points="370.43 181.41 374.84 183.95 375.47 183.59 371.06 181.05 370.43 181.41" style="fill:#455a64"></polygon><polygon points="374.53 179.04 378.94 181.59 379.57 181.22 375.17 178.68 374.53 179.04" style="fill:#455a64"></polygon><polygon points="368.05 182.78 372.46 185.33 372.77 185.15 368.37 182.6 368.05 182.78" style="fill:#455a64"></polygon><polygon points="371.48 180.81 375.88 183.35 376.2 183.16 371.79 180.62 371.48 180.81" style="fill:#455a64"></polygon><polygon points="373.73 179.51 378.13 182.05 378.45 181.87 374.04 179.33 373.73 179.51" style="fill:#455a64"></polygon><polygon points="366.67 183.59 371.07 186.13 371.9 185.65 367.5 183.11 366.67 183.59" style="fill:#455a64"></polygon><polygon points="368.91 182.29 373.32 184.83 374.23 184.3 369.83 181.76 368.91 182.29" style="fill:#455a64"></polygon><polygon points="372.33 180.32 376.73 182.86 377.6 182.37 373.19 179.82 372.33 180.32" style="fill:#455a64"></polygon><polygon points="386.01 172.42 390.41 174.96 391.05 174.59 386.64 172.05 386.01 172.42" style="fill:#455a64"></polygon><polygon points="387.16 171.75 391.57 174.29 391.88 174.11 387.48 171.57 387.16 171.75" style="fill:#455a64"></polygon><polygon points="389.3 170.51 393.71 173.06 394.02 172.88 389.62 170.33 389.3 170.51" style="fill:#455a64"></polygon><polygon points="388.08 171.22 392.49 173.76 393.39 173.24 388.99 170.7 388.08 171.22" style="fill:#455a64"></polygon></g><g id="freepik--Arm--inject-3"><path d="M416.43,113c3.27.63,7.62,1.41,10,5.47,3.06,5.2,17.06,33.59,16.83,35.81-.41,4-16.23,21.58-21.28,28.24-3.34,4.41-5.52,7.28-15.77,10.72-5.14,1.72-6.78.27-6.78.27L410.73,187c.59-.45,2-2,.47-1.9-1.29.07-2.56.32-3.85.3a5.4,5.4,0,0,1-3.13-.73,1,1,0,0,1-.45-.58.87.87,0,0,1,.2-.63,2.86,2.86,0,0,1,1-.53,9.88,9.88,0,0,1,1.18-.45c.81-.26,1.64-.46,2.43-.76,1.26-.48,2.41-.83,3.33-1.22a5.55,5.55,0,0,0,2.91-2.63c1.81-2.86,3-5.2,3.62-6.3,1.82-3.26,8.43-14.84,10.32-18.31l-12.37-20.34C412.36,127.79,412.45,113.89,416.43,113Z" style="fill:#ffa8a7"></path><path d="M415,112.91c2-.52,7-1.66,9.51,1.66s13.69,25.94,14.91,28.63,5.67,9.4,4.28,12.19-5.19,6.71-5.19,6.71a20.16,20.16,0,0,0-11.64-5.5l1.59-3.32L415,131.71S410.4,121.37,415,112.91Z" style="fill:#BA68C8"></path><path d="M415,112.91c2-.52,7-1.66,9.51,1.66s13.69,25.94,14.91,28.63,5.67,9.4,4.28,12.19-5.19,6.71-5.19,6.71a20.16,20.16,0,0,0-11.64-5.5l1.59-3.32L415,131.71S410.4,121.37,415,112.91Z" style="opacity:0.15"></path></g></g></g></svg>